<svg width="153" height="30" viewBox="0 0 153 30" fill="none" xmlns="http://www.w3.org/2000/svg">
<g clip-path="url(#clip0)">
<path d="M17.2821 18.9276C17.2768 18.4703 17.4132 18.0229 17.6719 17.6486C17.9307 17.2743 18.2988 16.9921 18.7241 16.8418C19.0767 16.7309 19.4517 16.7156 19.812 16.7973C20.1722 16.879 20.5051 17.055 20.7778 17.3078C20.9073 17.4396 21.0761 17.5241 21.2579 17.5482C21.4397 17.5723 21.6243 17.5346 21.7828 17.4409L24.3826 15.9099C23.7444 14.7868 22.7595 13.9087 21.5803 13.4114C20.4012 12.9141 19.0936 12.8253 17.8598 13.1588C16.626 13.4923 15.5348 14.2295 14.755 15.2562C13.9752 16.283 13.5504 17.5422 13.5461 18.8389V29.8004H17.2603V23.898H21.2584V20.7472H17.2821V18.9276Z" fill="white"/>
<path d="M11.7542 23.8977H7.40649C7.25418 23.8986 7.10322 23.8688 6.96234 23.81C6.82146 23.7512 6.69346 23.6646 6.58577 23.5553C6.47807 23.4459 6.39281 23.3159 6.33493 23.1728C6.27704 23.0297 6.24768 22.8764 6.24855 22.7217V20.769H11.776V23.8977H11.7542Z" fill="white"/>
<path d="M25.6921 5.17012L13.0204 0L0.370506 5.17012C0.259468 5.21565 0.164359 5.29384 0.0973854 5.39466C0.0304118 5.49548 -0.00537109 5.61433 -0.00537109 5.73595C-0.00537109 5.85757 0.0304118 5.97641 0.0973854 6.07723C0.164359 6.17805 0.259468 6.25624 0.370506 6.30177L3.31996 7.5V13.2692L3.73506 13.713C3.97539 14.0015 6.33495 16.4201 11.7532 16.4201V13.2692C8.80375 13.2692 7.14332 12.4038 6.42234 11.9157V8.76479L13.0422 11.4719L25.6921 6.30177C25.8031 6.25624 25.8982 6.17805 25.9652 6.07723C26.0322 5.97641 26.068 5.85757 26.068 5.73595C26.068 5.61433 26.0322 5.49548 25.9652 5.39466C25.8982 5.29384 25.8031 5.21565 25.6921 5.17012ZM13.0204 8.07692L7.29625 5.72485L13.0204 3.39497L18.7445 5.72485L13.0204 8.07692Z" fill="#12C0DD"/>
<path d="M24.9722 29.8003V17.8402H27.0696C27.2163 17.8405 27.3626 17.8554 27.5065 17.8846C27.6137 17.9154 27.7165 17.9601 27.8124 18.0177C27.8947 18.0876 27.9553 18.18 27.9872 18.284C28.0393 18.4122 28.076 18.5463 28.0964 18.6834L28.293 19.7929C28.6701 19.1657 29.168 18.6223 29.7568 18.1953C30.2664 17.8045 30.888 17.594 31.5265 17.5961C31.9891 17.5709 32.4456 17.7123 32.8155 17.9955L32.3349 20.6361C32.329 20.7006 32.3106 20.7633 32.2806 20.8204C32.2506 20.8776 32.2096 20.9281 32.1601 20.9689C32.0484 21.0371 31.9186 21.0681 31.7887 21.0577C31.635 21.0518 31.4818 21.037 31.3299 21.0133C31.1138 20.9733 30.8939 20.9584 30.6744 20.9689C29.7568 20.9689 29.014 21.4793 28.4897 22.4778V29.8225H24.9722V29.8003Z" fill="white"/>
<path d="M39.6112 17.6628C40.4454 17.649 41.275 17.792 42.0581 18.0844C42.7674 18.3546 43.4144 18.77 43.9589 19.3048C44.504 19.847 44.9221 20.5068 45.1824 21.2353C45.765 22.8926 45.765 24.7037 45.1824 26.361C44.9195 27.0946 44.5019 27.7611 43.9589 28.3137C43.4192 28.86 42.7713 29.2836 42.0581 29.5563C41.2764 29.8563 40.4468 30.0067 39.6112 30.0001C38.7685 30.0067 37.9317 29.8563 37.1424 29.5563C36.4292 29.2836 35.7813 28.86 35.2416 28.3137C34.6991 27.7564 34.2752 27.0918 33.9963 26.361C33.6991 25.5368 33.5511 24.6648 33.5593 23.787C33.549 22.9164 33.6972 22.0513 33.9963 21.2353C34.2644 20.5055 34.6899 19.8458 35.2416 19.3048C35.7861 18.77 36.4331 18.3546 37.1424 18.0844C37.9326 17.7901 38.7697 17.6471 39.6112 17.6628ZM39.6112 27.3373C40.4195 27.3373 41.0094 27.0489 41.4027 26.472C41.796 25.895 41.9707 25.0075 41.9707 23.8314C41.9707 22.6554 41.7741 21.7678 41.4027 21.1909C41.0313 20.614 40.4195 20.3255 39.6112 20.3255C38.8028 20.3255 38.1692 20.614 37.776 21.1909C37.3827 21.7678 37.1861 22.6554 37.1861 23.8314C37.1861 25.0075 37.3827 25.895 37.776 26.472C38.1692 27.0489 38.7591 27.3373 39.6112 27.3373Z" fill="white"/>
<path d="M47.5405 29.8003V17.8402H49.7253C49.9191 17.8304 50.1109 17.8849 50.2715 17.9956C50.4267 18.0972 50.5365 18.2565 50.5774 18.4394L50.774 19.1272C50.9914 18.9094 51.2251 18.7091 51.4731 18.5281C51.7196 18.347 51.9831 18.1909 52.2596 18.0621C52.5487 17.9321 52.8484 17.8282 53.1554 17.7515C53.5005 17.6794 53.8518 17.6422 54.2041 17.6405C54.7889 17.6283 55.3696 17.7417 55.9082 17.9734C56.3957 18.18 56.824 18.5082 57.1536 18.9275C57.5053 19.3484 57.7659 19.8399 57.9182 20.3698C58.0986 20.9587 58.187 21.5727 58.1804 22.1894V29.8003H54.6629V22.1894C54.6898 21.6987 54.5511 21.2134 54.2696 20.8136C54.1243 20.6441 53.9419 20.5117 53.737 20.4269C53.5321 20.3421 53.3104 20.3074 53.0899 20.3255C52.7128 20.3272 52.3404 20.4104 51.9975 20.5695C51.6388 20.7495 51.3077 20.9812 51.0143 21.2574V29.7781H47.5405V29.8003Z" fill="white"/>
<path d="M64.8438 30.0002C64.3384 30.0058 63.8359 29.9233 63.3581 29.7561C62.949 29.6127 62.5812 29.3688 62.2876 29.046C61.9944 28.7274 61.771 28.3492 61.6321 27.9365C61.4768 27.4725 61.4028 26.9843 61.4136 26.4942V20.3034H60.4086C60.2397 20.3019 60.0769 20.2389 59.9498 20.1259C59.8804 20.0574 59.8267 19.9741 59.7927 19.882C59.7587 19.7899 59.7452 19.6914 59.7532 19.5933V18.1954L61.6321 17.8182L62.3313 14.8892C62.4186 14.512 62.6808 14.3345 63.0959 14.3345H64.9311V17.8404H67.7932V20.2812H64.9311V26.228C64.9227 26.4727 64.9916 26.7137 65.1278 26.9158C65.1943 27.0035 65.2807 27.0735 65.3796 27.1198C65.4785 27.1662 65.587 27.1876 65.6958 27.1821C65.8065 27.1813 65.9166 27.1664 66.0235 27.1377C66.0978 27.112 66.1708 27.0824 66.242 27.049C66.298 27.0149 66.3564 26.9853 66.4168 26.9602C66.4789 26.9326 66.5457 26.9175 66.6134 26.9158C66.7054 26.9112 66.7966 26.9344 66.8756 26.9824C66.9568 27.0494 67.0237 27.1324 67.0722 27.2265L68.1428 28.9129C67.683 29.2629 67.165 29.5259 66.6134 29.6895C66.0476 29.9036 65.4475 30.009 64.8438 30.0002Z" fill="white"/>
<path d="M74.8502 17.6629C75.5804 17.6579 76.3055 17.7856 76.9913 18.0401C77.6154 18.2664 78.1824 18.6301 78.6517 19.1052C79.1313 19.598 79.5034 20.1877 79.7441 20.836C80.0162 21.5734 80.1496 22.3562 80.1374 23.1437C80.1368 23.3663 80.1222 23.5886 80.0937 23.8094C80.084 23.9516 80.0389 24.089 79.9626 24.2088C79.9117 24.305 79.8253 24.3768 79.7223 24.4085C79.5965 24.4558 79.4631 24.4784 79.329 24.475H72.5344C72.6436 25.4736 72.9495 26.2058 73.4301 26.6496C73.9501 27.1065 74.6221 27.3446 75.309 27.3153C75.665 27.3282 76.0203 27.2756 76.3577 27.1599C76.6262 27.0649 76.8888 26.9538 77.1443 26.8271C77.3846 26.694 77.5812 26.583 77.7778 26.4943C77.9647 26.3886 78.1757 26.335 78.3896 26.3389C78.5125 26.3314 78.6353 26.3561 78.7462 26.4104C78.8571 26.4648 78.9525 26.5472 79.0232 26.6496L80.05 27.9366C79.706 28.3378 79.309 28.6888 78.8702 28.9795C78.4651 29.2355 78.0327 29.4439 77.5812 29.6008C77.1475 29.7463 76.7013 29.8503 76.2485 29.9114C75.8288 29.9726 75.4053 30.0023 74.9813 30.0002C74.1922 30.0067 73.4082 29.8715 72.6655 29.6008C71.9547 29.3337 71.3071 28.9179 70.7647 28.3804C70.198 27.8085 69.7585 27.1199 69.4757 26.3611C69.1457 25.4676 68.9827 24.5195 68.995 23.5653C68.9904 22.7929 69.1237 22.0261 69.3883 21.302C69.6445 20.6001 70.0385 19.9584 70.5462 19.4159C71.0652 18.8643 71.6897 18.4263 72.3814 18.1289C73.167 17.8129 74.0054 17.6546 74.8502 17.6629ZM74.9158 20.1259C74.6288 20.1095 74.3416 20.1521 74.0712 20.2512C73.8009 20.3504 73.5531 20.504 73.3427 20.7028C72.9297 21.1737 72.6703 21.7627 72.5999 22.3892H76.9913C76.9887 22.112 76.952 21.8362 76.8821 21.5682C76.8105 21.3045 76.692 21.0564 76.5325 20.836C76.3671 20.6143 76.1491 20.4387 75.8989 20.3256C75.5909 20.1826 75.2543 20.1142 74.9158 20.1259Z" fill="white"/>
<path d="M82.1692 29.8003V17.8402H84.354C84.5478 17.8304 84.7395 17.8849 84.9002 17.9956C85.0554 18.0972 85.1652 18.2565 85.206 18.4394L85.4027 19.1272C85.62 18.9094 85.8538 18.7091 86.1018 18.5281C86.3483 18.3469 86.6117 18.1909 86.8883 18.0621C87.1774 17.9321 87.4771 17.8282 87.7841 17.7515C88.1291 17.6794 88.4804 17.6422 88.8328 17.6405C89.4175 17.6283 89.9983 17.7417 90.5369 17.9734C91.0244 18.18 91.4527 18.5082 91.7822 18.9275C92.134 19.3484 92.3945 19.8399 92.5469 20.3698C92.7272 20.9587 92.8157 21.5727 92.809 22.1894V29.8003H89.2916V22.1894C89.3185 21.6987 89.1797 21.2134 88.8983 20.8136C88.753 20.6441 88.5705 20.5117 88.3656 20.4269C88.1607 20.3421 87.9391 20.3074 87.7185 20.3255C87.3415 20.3272 86.9691 20.4104 86.6261 20.5695C86.2675 20.7495 85.9364 20.9812 85.643 21.2574V29.7781H82.1692V29.8003Z" fill="white"/>
<path d="M103.624 29.8004C103.431 29.8103 103.239 29.7557 103.078 29.6451C102.923 29.5435 102.813 29.3842 102.772 29.2013L102.51 28.2915C102.279 28.5382 102.03 28.768 101.767 28.9794C101.504 29.1776 101.226 29.3556 100.937 29.512C100.632 29.67 100.309 29.7892 99.9758 29.867C99.6102 29.95 99.236 29.9873 98.8616 29.9779C98.2676 29.986 97.6812 29.8409 97.1574 29.5563C96.6196 29.2704 96.1556 28.8599 95.8029 28.3581C95.3973 27.7717 95.0942 27.1186 94.9071 26.4276C94.6768 25.5825 94.5664 24.7083 94.5794 23.8315C94.5752 22.9885 94.7005 22.15 94.9508 21.3463C95.1679 20.6283 95.5163 19.9584 95.9776 19.3714C96.4097 18.823 96.9539 18.3763 97.5725 18.0623C98.2121 17.7469 98.9153 17.5873 99.6262 17.5963C100.148 17.5806 100.668 17.6712 101.156 17.8626C101.568 18.0377 101.952 18.2773 102.292 18.5726V12.5371H105.809V29.8226H103.624V29.8004ZM100.063 27.2486C100.298 27.2506 100.532 27.2283 100.762 27.1821C100.964 27.1452 101.157 27.0699 101.33 26.9602C101.516 26.8703 101.685 26.7504 101.833 26.6052C101.997 26.4532 102.15 26.2901 102.292 26.117V21.0356C102.059 20.7544 101.758 20.5402 101.418 20.4143C101.11 20.2999 100.785 20.2399 100.456 20.2368C100.147 20.232 99.84 20.3003 99.5607 20.4365C99.2765 20.5846 99.0298 20.7972 98.8397 21.0578C98.6207 21.4064 98.4584 21.7885 98.3591 22.1895C98.2374 22.7354 98.1788 23.2939 98.1843 23.8537C98.1769 24.3893 98.2208 24.9243 98.3154 25.4513C98.3846 25.8166 98.51 26.1685 98.6868 26.4942C98.8193 26.7444 99.0256 26.9461 99.2767 27.0711C99.5232 27.1872 99.7915 27.2477 100.063 27.2486Z" fill="white"/>
<path d="M108.54 29.8004V12.5371H112.057V19.1273C112.489 18.6895 112.992 18.3293 113.543 18.0623C114.16 17.7809 114.832 17.6444 115.509 17.6628C116.1 17.658 116.684 17.7949 117.213 18.0623C117.75 18.3399 118.214 18.7429 118.568 19.2383C118.973 19.8166 119.276 20.4624 119.463 21.1466C119.692 21.9844 119.803 22.8511 119.791 23.7205C119.797 24.5637 119.672 25.4024 119.42 26.2057C119.198 26.9216 118.85 27.5907 118.393 28.1806C117.961 28.7291 117.417 29.1758 116.798 29.4898C116.158 29.8051 115.455 29.9647 114.744 29.9557C114.428 29.9556 114.113 29.9184 113.805 29.8448C113.541 29.7757 113.285 29.679 113.04 29.5563C112.812 29.4266 112.599 29.2703 112.407 29.0904C112.21 28.9128 112.035 28.7131 111.839 28.5134L111.707 29.1126C111.695 29.2124 111.664 29.3089 111.615 29.3964C111.567 29.484 111.501 29.561 111.423 29.6229C111.257 29.7188 111.068 29.7649 110.877 29.756H108.54V29.8004ZM114.286 20.3478C114.051 20.3458 113.817 20.3681 113.586 20.4143C113.379 20.4549 113.18 20.5299 112.997 20.6362C112.811 20.7261 112.641 20.8461 112.494 20.9913C112.33 21.1432 112.177 21.3063 112.035 21.4794V26.5608C112.264 26.8467 112.566 27.0619 112.909 27.1821C113.224 27.2984 113.557 27.3585 113.892 27.3596C114.202 27.3645 114.509 27.2961 114.788 27.1599C115.072 27.0118 115.319 26.7992 115.509 26.5386C115.728 26.19 115.89 25.8079 115.99 25.4069C116.112 24.8536 116.171 24.2877 116.164 23.7205C116.172 23.1849 116.128 22.6499 116.033 22.1229C115.964 21.7577 115.839 21.4057 115.662 21.08C115.529 20.8299 115.323 20.6281 115.072 20.5031C114.824 20.3943 114.556 20.3413 114.286 20.3478Z" fill="#12C0DD"/>
<path d="M125.363 12.5371V29.8226H121.845V12.5371H125.363Z" fill="#12C0DD"/>
<path d="M133.446 17.663C134.28 17.6493 135.11 17.7922 135.893 18.0846C136.602 18.3548 137.249 18.7702 137.794 19.305C138.339 19.8473 138.757 20.507 139.017 21.2355C139.6 22.8928 139.6 24.7039 139.017 26.3612C138.754 27.0949 138.337 27.7613 137.794 28.3139C137.254 28.8603 136.606 29.2838 135.893 29.5565C135.111 29.8565 134.282 30.007 133.446 30.0003C132.603 30.0069 131.767 29.8565 130.977 29.5565C130.264 29.2838 129.616 28.8603 129.077 28.3139C128.534 27.7566 128.11 27.092 127.831 26.3612C127.534 25.537 127.386 24.665 127.394 23.7873C127.384 22.9166 127.532 22.0515 127.831 21.2355C128.099 20.5057 128.525 19.8461 129.077 19.305C129.621 18.7702 130.268 18.3548 130.977 18.0846C131.768 17.7922 132.605 17.6493 133.446 17.663ZM133.446 27.3376C134.255 27.3376 134.844 27.0491 135.238 26.4722C135.631 25.8953 135.806 25.0077 135.806 23.8317C135.806 22.6556 135.609 21.768 135.238 21.1911C134.866 20.6142 134.255 20.3257 133.446 20.3257C132.638 20.3257 132.004 20.6142 131.611 21.1911C131.218 21.768 131.021 22.6556 131.021 23.8317C131.021 25.0077 131.218 25.8953 131.611 26.4722C132.004 27.0491 132.616 27.3376 133.446 27.3376Z" fill="#12C0DD"/>
<path d="M144.895 12.5371V22.2117H145.419C145.591 22.2251 145.764 22.1946 145.922 22.1229C146.052 22.0355 146.163 21.9223 146.249 21.7901L148.5 18.4173C148.612 18.2316 148.77 18.0787 148.958 17.9735C149.171 17.8761 149.403 17.8305 149.636 17.8404H152.869L149.832 22.1007C149.689 22.2934 149.528 22.4718 149.352 22.6333C149.179 22.786 148.997 22.9269 148.805 23.0549C149.169 23.3386 149.474 23.6931 149.701 24.0978L153.022 29.8226H149.832C149.6 29.8301 149.368 29.7846 149.155 29.6895C148.95 29.5896 148.782 29.4265 148.674 29.2235L146.446 24.9853C146.372 24.8321 146.259 24.7018 146.118 24.6081C145.961 24.5364 145.788 24.5059 145.616 24.5194H144.938V29.8226H141.421V12.5371H144.895Z" fill="#12C0DD"/>
</g>
<defs>
<clipPath id="clip0">
<rect width="153" height="30" fill="white"/>
</clipPath>
</defs>
</svg>
